:version 1.10
:name ASF
:units
  mass 1
  length 1
  angle deg
:documentation
  ASF file generated by Kaydara
:root
  axis xyz
  order  tx ty tz rx ry rz
  position 0 0 0
  orientation 0 0 0
:bonedata
  begin
    id 1
    name RightUpLegDummy
    direction -1 2.30186e-007 8.31532e-007
    length 4.04083
    axis 0 0 0 xyz
  end
  begin
    id 2
    name RightUpLeg
    direction -0.000919234 -0.999985 0.00544864
    length 17.4221
    axis -3.80308 -0.00076134 -0.0523649 xyz
    dof rx ry rz
  end
  begin
    id 3
    name RightLeg
    direction -0.000919271 -0.999984 -0.00555045
    length 17.1239
    axis 4.00314 0.0181274 -0.183583 xyz
    dof rx ry rz
  end
  begin
    id 4
    name RightFoot
    direction -2.57843e-005 -4.04509e-007 1
    length 6.72091
    axis 8.18909e-005 -0.122003 -0.403008 xyz
    dof rx ry rz
  end
  begin
    id 5
    name RightToes
    direction 0.00116825 -0.014069 0.9999
    length 3.85082
    axis 0.000514414 0.540638 -0.356797 xyz
    dof rx ry rz
  end
  begin
    id 6
    name SpineDummy
    direction 0.0168869 0.966876 -0.254689
    length 6.99894
    axis 0 0 0 xyz
  end
  begin
    id 7
    name Spine
    direction -0.0132008 0.999903 0.00446247
    length 11.1999
    axis -0.00148109 0.00725429 0.756411 xyz
    dof rx ry rz
  end
  begin
    id 8
    name Spine1
    direction 0 0 0
    length 0
    axis -0.000934958 0.0245693 1.46543 xyz
    dof rx ry rz
  end
  begin
    id 9
    name HEadDummy
    direction -0.0255732 0.999672 0.00128215
    length 3.43865
    axis -0.000934958 0.0245693 1.46543 xyz
  end
  begin
    id 10
    name HEad
    direction -0.0472656 0.980052 0.19304
    length 5.12695
    axis -0.000934954 0.0245693 1.46543 xyz
    dof rx ry rz
  end
  begin
    id 11
    name LeftShoulder1Dummy
    direction 0.953098 0.301717 -0.023914
    length 3.68488
    axis -0.000934958 0.0245693 1.46543 xyz
  end
  begin
    id 12
    name LeftShoulder1
    direction 0.962466 0.271167 0.0112566
    length 3.13809
    axis -0.000934958 0.0245693 1.46543 xyz
    dof rx ry rz
  end
  begin
    id 13
    name LeftArm
    direction 0.999943 0.00455037 -0.00961766
    length 11.3419
    axis -23.1648 0.685459 1.22814 xyz
    dof rx ry rz
  end
  begin
    id 14
    name LeftForeArm
    direction 0.999332 0.0131969 0.0340885
    length 8.70632
    axis -9.90633 0.618216 0.0826942 xyz
    dof rx ry rz
  end
  begin
    id 15
    name LeftHand
    direction 0.994373 -0.0366703 0.0993905
    length 5.32135
    axis 0.00675269 0.680415 0.445699 xyz
    dof rx ry rz
  end
  begin
    id 16
    name RightShoulderDummy
    direction -0.967298 0.252589 -0.0230903
    length 3.68488
    axis -0.000934958 0.0245693 1.46543 xyz
  end
  begin
    id 17
    name RightShoulder
    direction -0.975062 0.221602 0.0120823
    length 3.13809
    axis 0.216257 0.0246515 1.45863 xyz
    dof rx ry rz
  end
  begin
    id 18
    name RightArm
    direction -0.99886 -0.00851186 -0.0469687
    length 10.3947
    axis -23.196 0.23503 -0.532632 xyz
    dof rx ry rz
  end
  begin
    id 19
    name RightForeArm
    direction -0.99909 0.00114866 0.0426317
    length 8.68355
    axis -9.91764 -0.134943 0.610517 xyz
    dof rx ry rz
  end
  begin
    id 20
    name RightHand
    direction -0.992888 -0.0489538 0.10852
    length 5.28593
    axis -0.00275396 -0.197403 0.246414 xyz
    dof rx ry rz
  end
  begin
    id 21
    name LeftUpLegDummy
    direction 1 -2.30186e-007 -8.31532e-007
    length 4.04083
    axis 0 0 0 xyz
  end
  begin
    id 22
    name LeftUpLeg
    direction -0.000920097 -1 2.79241e-006
    length 17.4221
    axis -3.48782 0.00143434 -0.0532288 xyz
    dof rx ry rz
  end
  begin
    id 23
    name LeftLeg
    direction -0.000920097 -1 2.7912e-006
    length 17.1239
    axis 3.68162 -0.00806512 -0.0529896 xyz
    dof rx ry rz
  end
  begin
    id 24
    name LeftFoot
    direction -2.57845e-005 -3.987e-007 1
    length 6.72091
    axis 3.02372e-005 -0.00147829 -0.214229 xyz
    dof rx ry rz
  end
  begin
    id 25
    name LeftToes
    direction 0.00813577 -0.00488255 0.999955
    length 3.85048
    axis 3.89895e-005 -0.0014783 -0.214229 xyz
    dof rx ry rz
  end
:hierarchy
  begin
    root RightUpLegDummy SpineDummy LeftUpLegDummy
    RightUpLegDummy RightUpLeg
    RightUpLeg RightLeg
    RightLeg RightFoot
    RightFoot RightToes
    SpineDummy Spine
    Spine Spine1
    Spine1 HEadDummy LeftShoulder1Dummy RightShoulderDummy
    HEadDummy HEad
    LeftShoulder1Dummy LeftShoulder1
    LeftShoulder1 LeftArm
    LeftArm LeftForeArm
    LeftForeArm LeftHand
    RightShoulderDummy RightShoulder
    RightShoulder RightArm
    RightArm RightForeArm
    RightForeArm RightHand
    LeftUpLegDummy LeftUpLeg
    LeftUpLeg LeftLeg
    LeftLeg LeftFoot
    LeftFoot LeftToes
  end

:SAMPLES-PER-SECOND 30
:FULLY-SPECIFIED
:DEGREES
1
root  -43.1292 34.6601 22.9143 -169.441 59.5492 -178.962
RightUpLeg  -6.67589 -20.2516 -3.59123
RightLeg  3.47049 -1.77613 0.00751756
RightFoot  8.52729 0.0455655 -0.0980102
RightToes  -33.4707 -0.165202 -0.272345
Spine  -1.56619 -0.046565 0.47507
Spine1  -3.18842 -0.0226479 1.50365
HEad  -68.6659 -0.477267 4.51906
LeftShoulder1  -1.94126e-019 -3.10601e-018 -2.51263e-017
LeftArm  -10.7092 23.0593 -80.9825
LeftForeArm  36.1928 -13.9707 -2.34699
LeftHand  -0.452556 -2.11352 7.19908
RightShoulder  -4.96962e-017 0 -2.36833e-017
RightArm  -24.843 -21.143 76.2484
RightForeArm  60.7351 12.6896 1.3931
RightHand  -0.367272 -1.36121 -10.5841
LeftUpLeg  -7.08957 5.58077 5.0929
LeftLeg  4.50685 12.9499 0.18428
LeftFoot  7.68133 -0.11718 1.88545
LeftToes  -28.917 2.32378e-006 -5.43956e-008
2
root  -43.1338 34.6551 22.9285 -169.342 59.5956 -178.928
RightUpLeg  -6.87043 -20.4725 -3.48157
RightLeg  3.58113 -1.73191 0.00402267
RightFoot  8.50868 0.0451787 -0.0924815
RightToes  -33.6407 -0.165202 -0.272345
Spine  -1.5791 -0.0732819 0.475069
Spine1  -3.21456 -0.0796332 1.52178
HEad  -68.7113 -0.463961 4.39542
LeftShoulder1  -1.94126e-019 -3.10601e-018 -2.51263e-017
LeftArm  -10.4164 23.2076 -81.0192
LeftForeArm  35.9839 -14.1496 -2.37013
LeftHand  -0.450904 -2.14753 7.14361
RightShoulder  -4.96962e-017 0 -2.36833e-017
RightArm  -25.4055 -21.4263 76.2403
RightForeArm  61.028 12.5347 1.4104
RightHand  -0.367666 -1.38465 -10.5707
LeftUpLeg  -7.21122 5.73035 5.11403
LeftLeg  4.58916 12.8422 0.201058
LeftFoot  7.67429 -0.115969 1.86662
LeftToes  -29.0717 2.32378e-006 -5.43956e-008
3
root  -43.1362 34.6487 22.9365 -169.237 59.6664 -178.842
RightUpLeg  -6.96771 -20.6337 -3.41075
RightLeg  3.64794 -1.50818 0.00185427
RightFoot  8.46235 0.0429152 -0.0601343
RightToes  -33.6009 -0.165202 -0.272345
Spine  -1.59053 -0.095326 0.475069
Spine1  -3.23746 -0.12746 1.52728
HEad  -68.5395 -0.298921 4.4143
LeftShoulder1  -1.94126e-019 -3.10601e-018 -2.51263e-017
LeftArm  -10.1287 23.3476 -81.1242
LeftForeArm  35.6075 -14.4974 -2.41647
LeftHand  -0.4808 -2.17997 7.57395
RightShoulder  -4.96962e-017 0 -2.36833e-017
RightArm  -25.7254 -21.6599 76.3263
RightForeArm  61.1309 12.4683 1.41759
RightHand  -0.36635 -1.36354 -10.6129
LeftUpLeg  -7.26574 6.22438 5.13804
LeftLeg  4.64953 12.4498 0.208001
LeftFoot  7.56835 -0.110843 1.78691
LeftToes  -28.9867 2.32378e-006 -5.43956e-008
4
root  -43.1412 34.6485 22.9428 -169.248 59.7109 -178.824
RightUpLeg  -6.97653 -20.5543 -3.40738
RightLeg  3.68497 -1.538 0.000887078
RightFoot  8.45876 0.0432353 -0.0647097
RightToes  -33.6429 -0.165202 -0.272345
Spine  -1.58229 -0.112197 0.467252
Spine1  -3.22149 -0.16409 1.51154
HEad  -68.6794 -0.443844 4.48104
LeftShoulder1  -1.94126e-019 -3.10601e-018 -2.51263e-017
LeftArm  -9.86541 23.318 -81.2181
LeftForeArm  35.4659 -14.9662 -2.48115
LeftHand  -0.474807 -2.13744 7.52121
RightShoulder  -4.96962e-017 0 -2.36833e-017
RightArm  -26.1045 -21.7944 76.5063
RightForeArm  61.1594 12.4657 1.41771
RightHand  -0.366008 -1.32401 -10.6254
LeftUpLeg  -7.26259 6.27367 5.14677
LeftLeg  4.68698 12.4525 0.216119
LeftFoot  7.56871 -0.110827 1.78666
LeftToes  -29.0193 2.32378e-006 -5.43956e-008
5
root  -43.1495 34.6492 22.9508 -169.206 59.7583 -178.78
RightUpLeg  -6.99094 -20.5045 -3.37426
RightLeg  3.6454 -1.53988 0.00194447
RightFoot  8.49491 0.0433346 -0.0661285
RightToes  -33.5926 -0.165202 -0.272345
Spine  -1.58866 -0.127052 0.464909
Spine1  -3.23431 -0.194525 1.51069
HEad  -68.3951 -0.414381 4.50057
LeftShoulder1  -1.94126e-019 -3.10601e-018 -2.51263e-017
LeftArm  -9.71802 23.2515 -81.3569
LeftForeArm  35.4241 -15.5491 -2.55903
LeftHand  -0.475541 -2.22052 7.45631
RightShoulder  -4.96962e-017 0 -2.36833e-017
RightArm  -26.1092 -21.9042 76.7213
RightForeArm  60.8907 12.6296 1.3996
RightHand  -0.368667 -1.28515 -10.5438
LeftUpLeg  -7.2485 6.19273 5.17015
LeftLeg  4.64161 12.5765 0.208369
LeftFoot  7.60722 -0.112503 1.81273
LeftToes  -29.1294 2.32378e-006 -5.43956e-008
6
root  -43.1593 34.6537 22.9586 -169.184 59.8007 -178.748
RightUpLeg  -6.97935 -20.4119 -3.34956
RightLeg  3.57212 -1.5974 0.00724779
RightFoot  8.55014 0.0440077 -0.0757481
RightToes  -33.5319 -0.165202 -0.272345
Spine  -1.60214 -0.147006 0.455725
Spine1  -3.26159 -0.233202 1.49639
HEad  -68.1603 -0.466889 4.52818
LeftShoulder1  -1.94126e-019 -3.10601e-018 -2.51263e-017
LeftArm  -9.40378 23.2153 -81.4482
LeftForeArm  35.21 -16.3768 -2.66506
LeftHand  -0.47068 -2.2208 7.3819
RightShoulder  -4.96962e-017 0 -2.36833e-017
RightArm  -25.9377 -21.9446 76.9811
RightForeArm  60.6522 12.8589 1.37213
RightHand  -0.372046 -1.21557 -10.4403
LeftUpLeg  -7.21413 6.09482 5.19153
LeftLeg  4.56525 12.696 0.193545
LeftFoot  7.63639 -0.114055 1.83687
LeftToes  -29.0209 2.32378e-006 -5.43956e-008
7
root  -43.1682 34.6589 22.9642 -169.17 59.8576 -178.727
RightUpLeg  -6.93427 -20.339 -3.3362
RightLeg  3.43157 -1.61243 0.00798236
RightFoot  8.63658 0.0443057 -0.0800062
RightToes  -33.5866 -0.165202 -0.272345
Spine  -1.62605 -0.162672 0.445179
Spine1  -3.309 -0.262129 1.481
HEad  -67.9639 -0.515355 4.52354
LeftShoulder1  -1.94126e-019 -3.10601e-018 -2.51263e-017
LeftArm  -8.77267 23.2952 -81.4654
LeftForeArm  34.6327 -17.5614 -2.81082
LeftHand  -0.462163 -2.26196 7.21591
RightShoulder  -4.96962e-017 0 -2.36833e-017
RightArm  -25.3742 -21.9733 77.2207
RightForeArm  60.1911 13.2144 1.32697
RightHand  -0.373853 -1.11586 -10.3886
LeftUpLeg  -7.14369 6.13889 5.19774
LeftLeg  4.42157 12.6989 0.162019
LeftFoot  7.71844 -0.115385 1.85753
LeftToes  -29.1166 2.32378e-006 -5.43956e-008
